# xmcd
#
# Track frame offsets:
#	150
#	17646
#	30338
#	43023
#	57730
#	76648
#	91049
#	107912
#	122408
#	131936
#	150769
#	160689
#
# Disc length: 2383 seconds
#
# Revision: 1
# Processed by: cddbd v1.5.2PL0 Copyright (c) Steve Scherf et al.
# Submitted via: audiograbber 1.83.01
#
DISCID=82094d0c
DTITLE=Louisiana Man - Back to nothing from a broken heart-cd 2
DYEAR=2010
DGENRE=Blues
TTITLE0=Broken heart
TTITLE1=How long
TTITLE2=I want ya G I love ya
TTITLE3=Bit by bit
TTITLE4=From nothing to a broken heart
TTITLE5=She don't want me no more
TTITLE6=Ti zydeco
TTITLE7=See that my grave is kept clean
TTITLE8=My creole belle
TTITLE9=Little Lisa Wane
TTITLE10=Ev'thing gon'be alright
TTITLE11=Nobody's fault - the procession
EXTD=
EXTT0=
EXTT1=
EXTT2=
EXTT3=
EXTT4=
EXTT5=
EXTT6=
EXTT7=
EXTT8=
EXTT9=
EXTT10=
EXTT11=
PLAYORDER=
